<mxfile host="app.diagrams.net" agent="Mozilla/5.0 (Windows NT 10.0; Win64; x64) AppleWebKit/537.36 (KHTML, like Gecko) Chrome/128.0.0.0 Safari/537.36" version="24.7.10">
  <diagram name="Page-1" id="uJFL2EZ22F4vlHx-uCxO">
    <mxGraphModel dx="1054" dy="921" grid="1" gridSize="10" guides="1" tooltips="1" connect="1" arrows="1" fold="1" page="1" pageScale="1" pageWidth="850" pageHeight="1100" math="0" shadow="0">
      <root>
        <mxCell id="0" />
        <mxCell id="1" parent="0" />
        <mxCell id="XVhK8neQdVpPmh5Un0Qz-3" value="" style="edgeStyle=orthogonalEdgeStyle;rounded=0;orthogonalLoop=1;jettySize=auto;html=1;" edge="1" parent="1" source="XVhK8neQdVpPmh5Un0Qz-1" target="XVhK8neQdVpPmh5Un0Qz-2">
          <mxGeometry relative="1" as="geometry" />
        </mxCell>
        <mxCell id="XVhK8neQdVpPmh5Un0Qz-1" value="Height, Room W,&lt;br&gt;Room D, Closet W,&lt;br&gt;Closet D, Main Door W,&lt;br&gt;Main Door H, Closet Door W,&lt;br&gt;Closet Door H,Window W,&lt;br&gt;Window H" style="shape=parallelogram;perimeter=parallelogramPerimeter;whiteSpace=wrap;html=1;fixedSize=1;fontStyle=1" vertex="1" parent="1">
          <mxGeometry x="40" y="10" width="200" height="90" as="geometry" />
        </mxCell>
        <mxCell id="XVhK8neQdVpPmh5Un0Qz-6" value="" style="edgeStyle=orthogonalEdgeStyle;rounded=0;orthogonalLoop=1;jettySize=auto;html=1;" edge="1" parent="1" source="XVhK8neQdVpPmh5Un0Qz-2" target="XVhK8neQdVpPmh5Un0Qz-4">
          <mxGeometry relative="1" as="geometry" />
        </mxCell>
        <mxCell id="XVhK8neQdVpPmh5Un0Qz-2" value="Start" style="ellipse;whiteSpace=wrap;html=1;fillColor=#d5e8d4;strokeColor=#82b366;" vertex="1" parent="1">
          <mxGeometry x="40" y="140" width="120" height="80" as="geometry" />
        </mxCell>
        <mxCell id="XVhK8neQdVpPmh5Un0Qz-7" value="&lt;b&gt;Height,&lt;br&gt;Room W,&lt;br&gt;Room D&lt;/b&gt;" style="edgeStyle=orthogonalEdgeStyle;rounded=0;orthogonalLoop=1;jettySize=auto;html=1;" edge="1" parent="1" source="XVhK8neQdVpPmh5Un0Qz-4" target="XVhK8neQdVpPmh5Un0Qz-5">
          <mxGeometry relative="1" as="geometry">
            <mxPoint as="offset" />
          </mxGeometry>
        </mxCell>
        <mxCell id="XVhK8neQdVpPmh5Un0Qz-4" value="&lt;b&gt;Coverage Rate&lt;/b&gt;&lt;br&gt;is 400" style="rounded=1;whiteSpace=wrap;html=1;" vertex="1" parent="1">
          <mxGeometry x="40" y="240" width="120" height="60" as="geometry" />
        </mxCell>
        <mxCell id="XVhK8neQdVpPmh5Un0Qz-25" value="&lt;b&gt;Result&lt;/b&gt;" style="edgeStyle=orthogonalEdgeStyle;rounded=0;orthogonalLoop=1;jettySize=auto;html=1;" edge="1" parent="1" source="XVhK8neQdVpPmh5Un0Qz-5" target="XVhK8neQdVpPmh5Un0Qz-24">
          <mxGeometry relative="1" as="geometry" />
        </mxCell>
        <mxCell id="XVhK8neQdVpPmh5Un0Qz-5" value="Calculate Space Area" style="shape=process;whiteSpace=wrap;html=1;backgroundOutline=1;" vertex="1" parent="1">
          <mxGeometry x="40" y="370" width="120" height="60" as="geometry" />
        </mxCell>
        <mxCell id="XVhK8neQdVpPmh5Un0Qz-8" value="Calculate Space Area" style="swimlane;whiteSpace=wrap;html=1;" vertex="1" parent="1">
          <mxGeometry x="680" y="10" width="140" height="620" as="geometry" />
        </mxCell>
        <mxCell id="XVhK8neQdVpPmh5Un0Qz-23" value="" style="edgeStyle=orthogonalEdgeStyle;rounded=0;orthogonalLoop=1;jettySize=auto;html=1;" edge="1" parent="XVhK8neQdVpPmh5Un0Qz-8" source="XVhK8neQdVpPmh5Un0Qz-9" target="XVhK8neQdVpPmh5Un0Qz-10">
          <mxGeometry relative="1" as="geometry" />
        </mxCell>
        <mxCell id="XVhK8neQdVpPmh5Un0Qz-9" value="&lt;b&gt;H,W,D&lt;/b&gt;" style="shape=parallelogram;perimeter=parallelogramPerimeter;whiteSpace=wrap;html=1;fixedSize=1;" vertex="1" parent="XVhK8neQdVpPmh5Un0Qz-8">
          <mxGeometry x="10" y="30" width="120" height="60" as="geometry" />
        </mxCell>
        <mxCell id="XVhK8neQdVpPmh5Un0Qz-22" style="edgeStyle=orthogonalEdgeStyle;rounded=0;orthogonalLoop=1;jettySize=auto;html=1;entryX=0.5;entryY=0;entryDx=0;entryDy=0;" edge="1" parent="XVhK8neQdVpPmh5Un0Qz-8" source="XVhK8neQdVpPmh5Un0Qz-10" target="XVhK8neQdVpPmh5Un0Qz-11">
          <mxGeometry relative="1" as="geometry" />
        </mxCell>
        <mxCell id="XVhK8neQdVpPmh5Un0Qz-10" value="Start" style="ellipse;whiteSpace=wrap;html=1;fillColor=#d5e8d4;strokeColor=#82b366;" vertex="1" parent="XVhK8neQdVpPmh5Un0Qz-8">
          <mxGeometry x="10" y="110" width="120" height="80" as="geometry" />
        </mxCell>
        <mxCell id="XVhK8neQdVpPmh5Un0Qz-19" value="" style="edgeStyle=orthogonalEdgeStyle;rounded=0;orthogonalLoop=1;jettySize=auto;html=1;" edge="1" parent="XVhK8neQdVpPmh5Un0Qz-8" source="XVhK8neQdVpPmh5Un0Qz-11" target="XVhK8neQdVpPmh5Un0Qz-13">
          <mxGeometry relative="1" as="geometry" />
        </mxCell>
        <mxCell id="XVhK8neQdVpPmh5Un0Qz-11" value="Set &lt;b&gt;Walls 1&lt;/b&gt; to &lt;b&gt;H&lt;/b&gt;x&lt;b&gt;W&lt;/b&gt;x2" style="rounded=1;whiteSpace=wrap;html=1;" vertex="1" parent="XVhK8neQdVpPmh5Un0Qz-8">
          <mxGeometry x="10" y="210" width="120" height="60" as="geometry" />
        </mxCell>
        <mxCell id="XVhK8neQdVpPmh5Un0Qz-18" value="" style="edgeStyle=orthogonalEdgeStyle;rounded=0;orthogonalLoop=1;jettySize=auto;html=1;" edge="1" parent="XVhK8neQdVpPmh5Un0Qz-8" source="XVhK8neQdVpPmh5Un0Qz-12" target="XVhK8neQdVpPmh5Un0Qz-14">
          <mxGeometry relative="1" as="geometry" />
        </mxCell>
        <mxCell id="XVhK8neQdVpPmh5Un0Qz-12" value="Set &lt;b&gt;Walls 2&lt;/b&gt; to &lt;b&gt;H&lt;/b&gt;x&lt;b&gt;D&lt;/b&gt;x2" style="rounded=1;whiteSpace=wrap;html=1;" vertex="1" parent="XVhK8neQdVpPmh5Un0Qz-8">
          <mxGeometry x="10" y="290" width="120" height="60" as="geometry" />
        </mxCell>
        <mxCell id="XVhK8neQdVpPmh5Un0Qz-17" value="" style="edgeStyle=orthogonalEdgeStyle;rounded=0;orthogonalLoop=1;jettySize=auto;html=1;" edge="1" parent="XVhK8neQdVpPmh5Un0Qz-8" source="XVhK8neQdVpPmh5Un0Qz-13" target="XVhK8neQdVpPmh5Un0Qz-14">
          <mxGeometry relative="1" as="geometry" />
        </mxCell>
        <mxCell id="XVhK8neQdVpPmh5Un0Qz-13" value="Set &lt;b&gt;Surface Area &lt;/b&gt;to&amp;nbsp;&lt;b&gt;Walls 1&lt;/b&gt;+&lt;b&gt;Walls 2&lt;/b&gt;" style="rounded=1;whiteSpace=wrap;html=1;" vertex="1" parent="XVhK8neQdVpPmh5Un0Qz-8">
          <mxGeometry x="10" y="370" width="120" height="60" as="geometry" />
        </mxCell>
        <mxCell id="XVhK8neQdVpPmh5Un0Qz-16" value="" style="edgeStyle=orthogonalEdgeStyle;rounded=0;orthogonalLoop=1;jettySize=auto;html=1;" edge="1" parent="XVhK8neQdVpPmh5Un0Qz-8" source="XVhK8neQdVpPmh5Un0Qz-14" target="XVhK8neQdVpPmh5Un0Qz-15">
          <mxGeometry relative="1" as="geometry" />
        </mxCell>
        <mxCell id="XVhK8neQdVpPmh5Un0Qz-14" value="End" style="ellipse;whiteSpace=wrap;html=1;fillColor=#f8cecc;strokeColor=#b85450;" vertex="1" parent="XVhK8neQdVpPmh5Un0Qz-8">
          <mxGeometry x="10" y="450" width="120" height="80" as="geometry" />
        </mxCell>
        <mxCell id="XVhK8neQdVpPmh5Un0Qz-15" value="&lt;b&gt;Surface Area&lt;/b&gt;" style="shape=parallelogram;perimeter=parallelogramPerimeter;whiteSpace=wrap;html=1;fixedSize=1;" vertex="1" parent="XVhK8neQdVpPmh5Un0Qz-8">
          <mxGeometry x="10" y="550" width="120" height="60" as="geometry" />
        </mxCell>
        <mxCell id="XVhK8neQdVpPmh5Un0Qz-28" value="&lt;b&gt;Height,&lt;br&gt;Closet W,&lt;br&gt;Closet D&lt;/b&gt;" style="edgeStyle=orthogonalEdgeStyle;rounded=0;orthogonalLoop=1;jettySize=auto;html=1;" edge="1" parent="1" source="XVhK8neQdVpPmh5Un0Qz-24" target="XVhK8neQdVpPmh5Un0Qz-27">
          <mxGeometry relative="1" as="geometry" />
        </mxCell>
        <mxCell id="XVhK8neQdVpPmh5Un0Qz-24" value="Set &lt;b&gt;Main Room Area&amp;nbsp;&lt;/b&gt;to &lt;b&gt;Result&lt;/b&gt;" style="rounded=1;whiteSpace=wrap;html=1;" vertex="1" parent="1">
          <mxGeometry x="40" y="470" width="120" height="60" as="geometry" />
        </mxCell>
        <mxCell id="XVhK8neQdVpPmh5Un0Qz-30" value="Result" style="edgeStyle=orthogonalEdgeStyle;rounded=0;orthogonalLoop=1;jettySize=auto;html=1;fontStyle=1" edge="1" parent="1" source="XVhK8neQdVpPmh5Un0Qz-27" target="XVhK8neQdVpPmh5Un0Qz-29">
          <mxGeometry relative="1" as="geometry" />
        </mxCell>
        <mxCell id="XVhK8neQdVpPmh5Un0Qz-27" value="Calculate Space Area" style="shape=process;whiteSpace=wrap;html=1;backgroundOutline=1;" vertex="1" parent="1">
          <mxGeometry x="40" y="600" width="120" height="60" as="geometry" />
        </mxCell>
        <mxCell id="XVhK8neQdVpPmh5Un0Qz-43" value="Window H,&lt;br&gt;Window D" style="edgeStyle=orthogonalEdgeStyle;rounded=0;orthogonalLoop=1;jettySize=auto;html=1;exitX=0.5;exitY=1;exitDx=0;exitDy=0;entryX=0.5;entryY=0;entryDx=0;entryDy=0;fontStyle=1" edge="1" parent="1" source="XVhK8neQdVpPmh5Un0Qz-29" target="XVhK8neQdVpPmh5Un0Qz-42">
          <mxGeometry relative="1" as="geometry" />
        </mxCell>
        <mxCell id="XVhK8neQdVpPmh5Un0Qz-29" value="Set &lt;b&gt;Closet Area&lt;/b&gt;&amp;nbsp;to &lt;b&gt;Result&lt;/b&gt;" style="rounded=1;whiteSpace=wrap;html=1;" vertex="1" parent="1">
          <mxGeometry x="40" y="700" width="120" height="60" as="geometry" />
        </mxCell>
        <mxCell id="XVhK8neQdVpPmh5Un0Qz-31" value="Calculate Void Area" style="swimlane;whiteSpace=wrap;html=1;" vertex="1" parent="1">
          <mxGeometry x="520" y="10" width="140" height="460" as="geometry" />
        </mxCell>
        <mxCell id="XVhK8neQdVpPmh5Un0Qz-41" style="edgeStyle=orthogonalEdgeStyle;rounded=0;orthogonalLoop=1;jettySize=auto;html=1;exitX=0.5;exitY=1;exitDx=0;exitDy=0;entryX=0.5;entryY=0;entryDx=0;entryDy=0;" edge="1" parent="XVhK8neQdVpPmh5Un0Qz-31" source="XVhK8neQdVpPmh5Un0Qz-33" target="XVhK8neQdVpPmh5Un0Qz-34">
          <mxGeometry relative="1" as="geometry" />
        </mxCell>
        <mxCell id="XVhK8neQdVpPmh5Un0Qz-33" value="&lt;b&gt;H, W&lt;/b&gt;" style="shape=parallelogram;perimeter=parallelogramPerimeter;whiteSpace=wrap;html=1;fixedSize=1;" vertex="1" parent="XVhK8neQdVpPmh5Un0Qz-31">
          <mxGeometry x="10" y="30" width="120" height="60" as="geometry" />
        </mxCell>
        <mxCell id="XVhK8neQdVpPmh5Un0Qz-40" style="edgeStyle=orthogonalEdgeStyle;rounded=0;orthogonalLoop=1;jettySize=auto;html=1;exitX=0.5;exitY=1;exitDx=0;exitDy=0;entryX=0.5;entryY=0;entryDx=0;entryDy=0;" edge="1" parent="XVhK8neQdVpPmh5Un0Qz-31" source="XVhK8neQdVpPmh5Un0Qz-34" target="XVhK8neQdVpPmh5Un0Qz-36">
          <mxGeometry relative="1" as="geometry" />
        </mxCell>
        <mxCell id="XVhK8neQdVpPmh5Un0Qz-34" value="Start" style="ellipse;whiteSpace=wrap;html=1;fillColor=#d5e8d4;strokeColor=#82b366;" vertex="1" parent="XVhK8neQdVpPmh5Un0Qz-31">
          <mxGeometry x="10" y="110" width="120" height="80" as="geometry" />
        </mxCell>
        <mxCell id="XVhK8neQdVpPmh5Un0Qz-35" value="Void Area" style="shape=parallelogram;perimeter=parallelogramPerimeter;whiteSpace=wrap;html=1;fixedSize=1;fontStyle=1" vertex="1" parent="XVhK8neQdVpPmh5Un0Qz-31">
          <mxGeometry x="10" y="390" width="120" height="60" as="geometry" />
        </mxCell>
        <mxCell id="XVhK8neQdVpPmh5Un0Qz-39" style="edgeStyle=orthogonalEdgeStyle;rounded=0;orthogonalLoop=1;jettySize=auto;html=1;exitX=0.5;exitY=1;exitDx=0;exitDy=0;entryX=0.5;entryY=0;entryDx=0;entryDy=0;" edge="1" parent="XVhK8neQdVpPmh5Un0Qz-31" source="XVhK8neQdVpPmh5Un0Qz-36" target="XVhK8neQdVpPmh5Un0Qz-37">
          <mxGeometry relative="1" as="geometry" />
        </mxCell>
        <mxCell id="XVhK8neQdVpPmh5Un0Qz-36" value="Set &lt;b&gt;Void Area&lt;/b&gt;&amp;nbsp;to&amp;nbsp;&lt;b&gt;H&lt;/b&gt;x&lt;b&gt;W&lt;/b&gt;" style="rounded=1;whiteSpace=wrap;html=1;" vertex="1" parent="XVhK8neQdVpPmh5Un0Qz-31">
          <mxGeometry x="10" y="210" width="120" height="60" as="geometry" />
        </mxCell>
        <mxCell id="XVhK8neQdVpPmh5Un0Qz-38" style="edgeStyle=orthogonalEdgeStyle;rounded=0;orthogonalLoop=1;jettySize=auto;html=1;exitX=0.5;exitY=1;exitDx=0;exitDy=0;entryX=0.5;entryY=0;entryDx=0;entryDy=0;" edge="1" parent="XVhK8neQdVpPmh5Un0Qz-31" source="XVhK8neQdVpPmh5Un0Qz-37" target="XVhK8neQdVpPmh5Un0Qz-35">
          <mxGeometry relative="1" as="geometry" />
        </mxCell>
        <mxCell id="XVhK8neQdVpPmh5Un0Qz-37" value="End" style="ellipse;whiteSpace=wrap;html=1;fillColor=#f8cecc;strokeColor=#b85450;" vertex="1" parent="XVhK8neQdVpPmh5Un0Qz-31">
          <mxGeometry x="10" y="290" width="120" height="80" as="geometry" />
        </mxCell>
        <mxCell id="XVhK8neQdVpPmh5Un0Qz-45" value="Result" style="edgeStyle=orthogonalEdgeStyle;rounded=0;orthogonalLoop=1;jettySize=auto;html=1;exitX=0.5;exitY=1;exitDx=0;exitDy=0;entryX=0.5;entryY=0;entryDx=0;entryDy=0;fontStyle=1" edge="1" parent="1" source="XVhK8neQdVpPmh5Un0Qz-42" target="XVhK8neQdVpPmh5Un0Qz-44">
          <mxGeometry relative="1" as="geometry" />
        </mxCell>
        <mxCell id="XVhK8neQdVpPmh5Un0Qz-42" value="Calculate Void area" style="shape=process;whiteSpace=wrap;html=1;backgroundOutline=1;" vertex="1" parent="1">
          <mxGeometry x="40" y="820" width="120" height="60" as="geometry" />
        </mxCell>
        <mxCell id="XVhK8neQdVpPmh5Un0Qz-44" value="Set &lt;b&gt;Window Area&lt;/b&gt;&amp;nbsp;to &lt;b&gt;Result&lt;/b&gt;" style="rounded=1;whiteSpace=wrap;html=1;" vertex="1" parent="1">
          <mxGeometry x="40" y="920" width="120" height="60" as="geometry" />
        </mxCell>
        <mxCell id="XVhK8neQdVpPmh5Un0Qz-50" value="Main Door H,&lt;br&gt;Main Door D" style="edgeStyle=orthogonalEdgeStyle;rounded=0;orthogonalLoop=1;jettySize=auto;html=1;exitX=0.5;exitY=1;exitDx=0;exitDy=0;entryX=0.5;entryY=0;entryDx=0;entryDy=0;fontStyle=1" edge="1" parent="1" target="XVhK8neQdVpPmh5Un0Qz-52" source="XVhK8neQdVpPmh5Un0Qz-44">
          <mxGeometry x="0.9478" relative="1" as="geometry">
            <mxPoint x="310" y="160" as="sourcePoint" />
            <Array as="points">
              <mxPoint x="100" y="1000" />
              <mxPoint x="205" y="1000" />
              <mxPoint x="205" y="150" />
              <mxPoint x="310" y="150" />
            </Array>
            <mxPoint as="offset" />
          </mxGeometry>
        </mxCell>
        <mxCell id="XVhK8neQdVpPmh5Un0Qz-51" value="Result" style="edgeStyle=orthogonalEdgeStyle;rounded=0;orthogonalLoop=1;jettySize=auto;html=1;exitX=0.5;exitY=1;exitDx=0;exitDy=0;entryX=0.5;entryY=0;entryDx=0;entryDy=0;fontStyle=1" edge="1" parent="1" source="XVhK8neQdVpPmh5Un0Qz-52" target="XVhK8neQdVpPmh5Un0Qz-53">
          <mxGeometry relative="1" as="geometry" />
        </mxCell>
        <mxCell id="XVhK8neQdVpPmh5Un0Qz-52" value="Calculate Void area" style="shape=process;whiteSpace=wrap;html=1;backgroundOutline=1;" vertex="1" parent="1">
          <mxGeometry x="250" y="200" width="120" height="60" as="geometry" />
        </mxCell>
        <mxCell id="XVhK8neQdVpPmh5Un0Qz-53" value="Set &lt;b&gt;Main Door Area&lt;/b&gt;&amp;nbsp;to &lt;b&gt;Result&lt;/b&gt;" style="rounded=1;whiteSpace=wrap;html=1;" vertex="1" parent="1">
          <mxGeometry x="250" y="300" width="120" height="60" as="geometry" />
        </mxCell>
        <mxCell id="XVhK8neQdVpPmh5Un0Qz-54" value="Closet Door H,&lt;br&gt;Closet Door D" style="edgeStyle=orthogonalEdgeStyle;rounded=0;orthogonalLoop=1;jettySize=auto;html=1;exitX=0.5;exitY=1;exitDx=0;exitDy=0;entryX=0.5;entryY=0;entryDx=0;entryDy=0;fontStyle=1" edge="1" parent="1" target="XVhK8neQdVpPmh5Un0Qz-56" source="XVhK8neQdVpPmh5Un0Qz-53">
          <mxGeometry relative="1" as="geometry">
            <mxPoint x="310" y="470" as="sourcePoint" />
          </mxGeometry>
        </mxCell>
        <mxCell id="XVhK8neQdVpPmh5Un0Qz-55" value="Result" style="edgeStyle=orthogonalEdgeStyle;rounded=0;orthogonalLoop=1;jettySize=auto;html=1;exitX=0.5;exitY=1;exitDx=0;exitDy=0;entryX=0.5;entryY=0;entryDx=0;entryDy=0;fontStyle=1" edge="1" parent="1" source="XVhK8neQdVpPmh5Un0Qz-56" target="XVhK8neQdVpPmh5Un0Qz-57">
          <mxGeometry relative="1" as="geometry" />
        </mxCell>
        <mxCell id="XVhK8neQdVpPmh5Un0Qz-56" value="Calculate Void area" style="shape=process;whiteSpace=wrap;html=1;backgroundOutline=1;" vertex="1" parent="1">
          <mxGeometry x="250" y="430" width="120" height="60" as="geometry" />
        </mxCell>
        <mxCell id="XVhK8neQdVpPmh5Un0Qz-59" value="" style="edgeStyle=orthogonalEdgeStyle;rounded=0;orthogonalLoop=1;jettySize=auto;html=1;" edge="1" parent="1" source="XVhK8neQdVpPmh5Un0Qz-57" target="XVhK8neQdVpPmh5Un0Qz-58">
          <mxGeometry relative="1" as="geometry" />
        </mxCell>
        <mxCell id="XVhK8neQdVpPmh5Un0Qz-57" value="Set &lt;b&gt;Closet Door Area&lt;/b&gt;&amp;nbsp;to &lt;b&gt;Result&lt;/b&gt;" style="rounded=1;whiteSpace=wrap;html=1;" vertex="1" parent="1">
          <mxGeometry x="250" y="530" width="120" height="60" as="geometry" />
        </mxCell>
        <mxCell id="XVhK8neQdVpPmh5Un0Qz-61" value="" style="edgeStyle=orthogonalEdgeStyle;rounded=0;orthogonalLoop=1;jettySize=auto;html=1;" edge="1" parent="1" source="XVhK8neQdVpPmh5Un0Qz-58" target="XVhK8neQdVpPmh5Un0Qz-60">
          <mxGeometry relative="1" as="geometry" />
        </mxCell>
        <mxCell id="XVhK8neQdVpPmh5Un0Qz-58" value="Set &lt;b&gt;Total Area &lt;/b&gt;to &lt;b&gt;Main Room Area+Closet Area-Window Area-Main Door Area-2(Closet Door Area)&lt;/b&gt;" style="whiteSpace=wrap;html=1;rounded=1;" vertex="1" parent="1">
          <mxGeometry x="250" y="620" width="120" height="100" as="geometry" />
        </mxCell>
        <mxCell id="XVhK8neQdVpPmh5Un0Qz-63" value="" style="edgeStyle=orthogonalEdgeStyle;rounded=0;orthogonalLoop=1;jettySize=auto;html=1;" edge="1" parent="1" source="XVhK8neQdVpPmh5Un0Qz-60" target="XVhK8neQdVpPmh5Un0Qz-62">
          <mxGeometry relative="1" as="geometry" />
        </mxCell>
        <mxCell id="XVhK8neQdVpPmh5Un0Qz-60" value="Set &lt;b&gt;Coverage &lt;/b&gt;to &lt;b&gt;Total Area&lt;/b&gt;x2" style="whiteSpace=wrap;html=1;rounded=1;direction=west;" vertex="1" parent="1">
          <mxGeometry x="250" y="750" width="120" height="60" as="geometry" />
        </mxCell>
        <mxCell id="XVhK8neQdVpPmh5Un0Qz-65" value="" style="edgeStyle=orthogonalEdgeStyle;rounded=0;orthogonalLoop=1;jettySize=auto;html=1;" edge="1" parent="1" source="XVhK8neQdVpPmh5Un0Qz-62" target="XVhK8neQdVpPmh5Un0Qz-64">
          <mxGeometry relative="1" as="geometry" />
        </mxCell>
        <mxCell id="XVhK8neQdVpPmh5Un0Qz-62" value="Set &lt;b&gt;Gallons&lt;/b&gt;&amp;nbsp;to &lt;b&gt;Coverage&lt;/b&gt;/&lt;b&gt;Coverage Rate&lt;/b&gt;" style="whiteSpace=wrap;html=1;rounded=1;" vertex="1" parent="1">
          <mxGeometry x="250" y="840" width="120" height="60" as="geometry" />
        </mxCell>
        <mxCell id="XVhK8neQdVpPmh5Un0Qz-68" style="edgeStyle=orthogonalEdgeStyle;rounded=0;orthogonalLoop=1;jettySize=auto;html=1;exitX=0.5;exitY=1;exitDx=0;exitDy=0;entryX=0.5;entryY=0;entryDx=0;entryDy=0;" edge="1" parent="1" source="XVhK8neQdVpPmh5Un0Qz-64" target="XVhK8neQdVpPmh5Un0Qz-66">
          <mxGeometry relative="1" as="geometry" />
        </mxCell>
        <mxCell id="XVhK8neQdVpPmh5Un0Qz-64" value="Round &lt;b&gt;Gallons&lt;/b&gt;&amp;nbsp;up to the nearest whole number" style="whiteSpace=wrap;html=1;rounded=1;" vertex="1" parent="1">
          <mxGeometry x="250" y="920" width="120" height="60" as="geometry" />
        </mxCell>
        <mxCell id="XVhK8neQdVpPmh5Un0Qz-69" value="" style="edgeStyle=orthogonalEdgeStyle;rounded=0;orthogonalLoop=1;jettySize=auto;html=1;" edge="1" parent="1" source="XVhK8neQdVpPmh5Un0Qz-66" target="XVhK8neQdVpPmh5Un0Qz-67">
          <mxGeometry relative="1" as="geometry" />
        </mxCell>
        <mxCell id="XVhK8neQdVpPmh5Un0Qz-66" value="End" style="ellipse;whiteSpace=wrap;html=1;fillColor=#f8cecc;strokeColor=#b85450;" vertex="1" parent="1">
          <mxGeometry x="425" y="560" width="120" height="80" as="geometry" />
        </mxCell>
        <mxCell id="XVhK8neQdVpPmh5Un0Qz-67" value="&lt;b&gt;Gallons&lt;/b&gt;" style="shape=parallelogram;perimeter=parallelogramPerimeter;whiteSpace=wrap;html=1;fixedSize=1;" vertex="1" parent="1">
          <mxGeometry x="425" y="680" width="120" height="60" as="geometry" />
        </mxCell>
      </root>
    </mxGraphModel>
  </diagram>
</mxfile>
